<svg id="visual" viewBox="0 0 900 600" width="900" height="600" xmlns="http://www.w3.org/2000/svg" xmlns:xlink="http://www.w3.org/1999/xlink" version="1.1"><rect x="0" y="0" width="900" height="600" fill="#252425"></rect><defs><linearGradient id="grad1_0" x1="33.3%" y1="0%" x2="100%" y2="100%"><stop offset="20%" stop-color="#252425" stop-opacity="1"></stop><stop offset="80%" stop-color="#252425" stop-opacity="1"></stop></linearGradient></defs><defs><linearGradient id="grad2_0" x1="0%" y1="0%" x2="66.7%" y2="100%"><stop offset="20%" stop-color="#252425" stop-opacity="1"></stop><stop offset="80%" stop-color="#252425" stop-opacity="1"></stop></linearGradient></defs><g transform="translate(900, 0)"><path d="M0 486.7C-39.5 441 -79.1 395.3 -121.1 372.8C-163.2 350.3 -207.8 350.9 -241.6 332.5C-275.3 314.1 -298.2 276.6 -338.2 245.7C-378.2 214.7 -435.3 190.3 -462.9 150.4C-490.5 110.5 -488.6 55.3 -486.7 0L0 0Z" fill="#00aeef"></path></g><g transform="translate(0, 600)"><path d="M0 -486.7C51.3 -468 102.6 -449.3 133.8 -411.8C165 -374.3 176 -317.9 215.1 -296.1C254.3 -274.3 321.6 -287.1 369.7 -268.6C417.8 -250.1 446.6 -200.4 462.9 -150.4C479.2 -100.4 483 -50.2 486.7 0L0 0Z" fill="#00aeef"></path></g></svg>